<?xml version="1.0" encoding="utf-8"?>
<!-- Generator: Adobe Illustrator 26.0.0, SVG Export Plug-In . SVG Version: 6.00 Build 0)  -->
<svg version="1.1" id="Layer_1" xmlns="http://www.w3.org/2000/svg" xmlns:xlink="http://www.w3.org/1999/xlink" x="0px" y="0px"
	 viewBox="0 0 200 100" style="enable-background:new 0 0 200 100;" xml:space="preserve">
<style type="text/css">
	.st0{fill:#00DAFF;}
</style>
<g>
	<g>
		<g>
			<g>
				<g>
					<rect x="7.2" y="19.5" class="st0" width="10.9" height="10.9"/>
				</g>
				<g>
					<g>
						<polygon class="st0" points="18.1,33.4 7.2,33.4 7.2,44.3 8.7,44.3 8.7,55.2 5.9,55.2 5.9,66.2 7.2,66.2 7.2,77.1 18.1,77.1 
							18.1,66.2 16.9,66.2 16.9,55.2 19.6,55.2 19.6,44.3 18.1,44.3 						"/>
					</g>
					<g>
						<polygon class="st0" points="35.8,33.4 35.8,37.8 27.1,37.8 27.1,48.7 24.8,48.7 24.8,50.8 24.8,59.6 24.8,61.8 27.1,61.8 
							27.1,72.6 35.8,72.6 35.8,77.1 46.7,77.1 57.6,77.1 57.6,66.2 46.7,66.2 38,66.2 38,61.7 35.8,61.7 35.8,59.6 35.8,50.8 
							35.8,48.8 38,48.8 38,44.3 46.7,44.3 57.6,44.3 57.6,33.4 46.7,33.4 						"/>
					</g>
					<g>
						<polygon class="st0" points="191.6,55.2 191.6,44.3 187.6,44.3 187.6,35.6 176.7,35.6 176.7,33.4 174.6,33.4 165.8,33.4 
							163.7,33.4 163.7,35.6 154.8,35.6 152.8,35.6 143.9,35.6 143.9,33.4 141.8,33.4 133,33.4 130.9,33.4 130.9,35.6 120,35.6 
							120,44.3 116,44.3 116,55.2 113.5,55.2 113.5,66.2 116,66.2 116,77.1 127,77.1 127,66.2 124.4,66.2 124.4,55.2 127,55.2 
							127,46.6 130.9,46.6 130.9,44.3 133,44.3 141.8,44.3 143.8,44.3 143.8,46.6 148.3,46.6 148.3,55.2 148.3,66.2 159.3,66.2 
							159.3,55.2 159.3,55.2 159.3,46.6 163.8,46.6 163.8,44.3 165.8,44.3 174.6,44.3 176.7,44.3 176.7,46.6 180.6,46.6 180.6,55.2 
							183.1,55.2 183.1,66.2 180.6,66.2 180.6,77.1 191.6,77.1 191.6,66.2 194.1,66.2 194.1,55.2 						"/>
					</g>
					<g>
						<g>
							<path class="st0" d="M106.1,37.8h-8.7v-4.5h-1.8h-9.1h-1.8h-9.1h-1.8v4.5h-8.7v10.9h-2.3v2.1v8.8v2.1h2.3v10.9h8.7v4.5h1.8
								h9.1h1.8h9.1h1.8v-4.5h8.7V61.8h2.3v-2.1v-8.8v-2.1h-2.3V37.8z M97.4,59.6v2.1h-2.3v4.5h-8.7h-1.8H76v-4.5h-2.3v-2.1v-8.8
								v-2.1H76v-4.5h8.7h1.8h8.7v4.5h2.3v2.1V59.6z"/>
						</g>
					</g>
				</g>
			</g>
			<g>
				<g>
					<path class="st0" d="M194.1,32.4h-4.2v-4.2h4.2V32.4z M190.1,32.2h3.7v-3.7h-3.7V32.2z"/>
				</g>
				<g>
					<g>
						<path class="st0" d="M190.9,31.6V29h1v0c0.3,0,0.5,0.1,0.6,0.2c0.2,0.1,0.3,0.2,0.4,0.4c0.1,0.1,0.1,0.3,0.1,0.4
							c0,0.1,0,0.3-0.1,0.4c-0.1,0.2-0.3,0.4-0.6,0.5c0.1,0,0.1,0.1,0.2,0.1l0.5,0.6h-0.7l-0.6-0.6h-0.3v0.6H190.9z M191.4,29.5v0.9
							h0.5c0.3,0,0.4-0.1,0.5-0.3c0-0.1,0-0.1,0-0.2c0-0.1,0-0.1,0-0.2c-0.1-0.2-0.3-0.3-0.5-0.3v0H191.4z"/>
					</g>
				</g>
			</g>
		</g>
	</g>
</g>
</svg>
